# xmcd CD database file
#
# Track frame offsets:
#	187
#	13612
#	26887
#	37075
#	47712
#	63350
#	76062
#	86412
#	107037
#	117337
#
# Disc length: 1720 seconds
#
# Revision: 0
# Processed by: cddbd v1.4PL0 Copyright (c) Steve Scherf et al.
# Submitted via: CDex 1.50beta10
#
DISCID=7906b60a
DTITLE=Astrud Gilberto - I Haven't Got Anything Better To Do
DYEAR=1968
DGENRE=Jazz
TTITLE0=I Haven't Got Anything Better To Do
TTITLE1=Didn't We
TTITLE2=Wailing Of The Willow
TTITLE3=Where's The Love
TTITLE4=The Sea Is My Soul (I Remember When)
TTITLE5=Trains And Boats And Planes
TTITLE6=World Stop Turning
TTITLE7=Without Him
TTITLE8=Wee Small Hours
TTITLE9=If (The Biggest Little Word)
EXTD=YEAR: 1968
EXTT0=
EXTT1=
EXTT2=
EXTT3=
EXTT4=
EXTT5=
EXTT6=
EXTT7=
EXTT8=
EXTT9=
PLAYORDER=
